# MagicaVoxel @ Ephtracy

# group
o 

# material
mtllib chiikawa.mtl
usemtl palette

# normals
vn -1 0 0
vn 1 0 0
vn 0 0 1
vn 0 0 -1
vn 0 -1 0
vn 0 1 0

# texcoords
vt 0.0214844 0.5
vt 0.958984 0.5
vt 0.962891 0.5
vt 0.966797 0.5
vt 0.990234 0.5

# verts
v 0.6 1.7 -1.1
v 0.6 1.7 -1.2
v 0.6 1.8 -0.9
v 0.6 1.8 -1.1
v 0.6 1.8 -1.2
v 0.6 1.8 -1.3
v 0.6 2 -1.2
v 0.6 2 -1.3
v 0.6 2.1 -0.9
v 0.6 2.1 -1
v 0.6 2.1 -1.1
v 0.6 2.1 -1.2
v 0.6 2.2 -1
v 0.6 2.2 -1.1
v 0.7 1.3 -1
v 0.7 1.3 -1.1
v 0.7 1.5 -1
v 0.7 1.5 -1.1
v 0.7 1.5 -1.2
v 0.7 1.6 -1
v 0.7 1.6 -1.1
v 0.7 1.7 -0.9
v 0.7 1.7 -1
v 0.7 1.7 -1.1
v 0.7 1.7 -1.2
v 0.7 1.7 -1.3
v 0.7 1.8 -0.8
v 0.7 1.8 -0.9
v 0.7 1.8 -1.1
v 0.7 1.8 -1.2
v 0.7 1.8 -1.3
v 0.7 1.8 -1.4
v 0.7 1.9 -0.8
v 0.7 1.9 -0.9
v 0.7 2 -1.2
v 0.7 2 -1.3
v 0.7 2.1 -0.8
v 0.7 2.1 -0.9
v 0.7 2.1 -1
v 0.7 2.1 -1.1
v 0.7 2.1 -1.2
v 0.7 2.1 -1.3
v 0.7 2.1 -1.4
v 0.7 2.2 -0.9
v 0.7 2.2 -1
v 0.7 2.2 -1.1
v 0.7 2.2 -1.2
v 0.7 2.2 -1.3
v 0.7 2.4 -1
v 0.7 2.4 -1.2
v 0.8 1 -1
v 0.8 1 -1.1
v 0.8 1.1 -1
v 0.8 1.1 -1.1
v 0.8 1.2 -0.9
v 0.8 1.2 -1
v 0.8 1.2 -1.1
v 0.8 1.2 -1.2
v 0.8 1.3 -1
v 0.8 1.3 -1.1
v 0.8 1.5 -1
v 0.8 1.5 -1.1
v 0.8 1.5 -1.2
v 0.8 1.6 -0.9
v 0.8 1.6 -1
v 0.8 1.6 -1.2
v 0.8 1.6 -1.3
v 0.8 1.7 -0.8
v 0.8 1.7 -0.9
v 0.8 1.7 -1
v 0.8 1.7 -1.2
v 0.8 1.7 -1.3
v 0.8 1.7 -1.4
v 0.8 1.8 -0.8
v 0.8 1.8 -0.9
v 0.8 1.8 -1.3
v 0.8 1.8 -1.4
v 0.8 2.1 -0.8
v 0.8 2.1 -0.9
v 0.8 2.1 -1.3
v 0.8 2.1 -1.4
v 0.8 2.2 -0.8
v 0.8 2.2 -0.9
v 0.8 2.2 -1
v 0.8 2.2 -1.2
v 0.8 2.2 -1.3
v 0.8 2.2 -1.4
v 0.8 2.3 -0.9
v 0.8 2.3 -1
v 0.8 2.3 -1.2
v 0.8 2.3 -1.3
v 0.9 1.2 -1.2
v 0.9 1.2 -1.3
v 0.9 1.3 -1.2
v 0.9 1.3 -1.3
v 1.1 1 -1
v 1.1 1 -1.1
v 1.1 1.1 -1
v 1.1 1.1 -1.1
v 1.1 1.2 -1
v 1.1 1.2 -1.1
v 1.2 2.3 -1
v 1.2 2.3 -1.2
v 1.2 2.4 -1
v 1.2 2.4 -1.2
v 0.8 2.3 -1
v 0.8 2.3 -1.2
v 0.8 2.4 -1
v 0.8 2.4 -1.2
v 0.9 1 -1
v 0.9 1 -1.1
v 0.9 1.1 -1
v 0.9 1.1 -1.1
v 0.9 1.2 -1
v 0.9 1.2 -1.1
v 1 1.2 -1.2
v 1 1.2 -1.3
v 1 1.3 -1.2
v 1 1.3 -1.3
v 1.2 1 -1
v 1.2 1 -1.1
v 1.2 1.1 -1
v 1.2 1.1 -1.1
v 1.2 1.2 -0.9
v 1.2 1.2 -1
v 1.2 1.2 -1.1
v 1.2 1.2 -1.2
v 1.2 1.3 -1
v 1.2 1.3 -1.1
v 1.2 1.5 -1
v 1.2 1.5 -1.1
v 1.2 1.5 -1.2
v 1.2 1.6 -0.9
v 1.2 1.6 -1
v 1.2 1.6 -1.2
v 1.2 1.6 -1.3
v 1.2 1.7 -0.8
v 1.2 1.7 -0.9
v 1.2 1.7 -1
v 1.2 1.7 -1.2
v 1.2 1.7 -1.3
v 1.2 1.7 -1.4
v 1.2 1.8 -0.8
v 1.2 1.8 -0.9
v 1.2 1.8 -1.3
v 1.2 1.8 -1.4
v 1.2 2.1 -0.8
v 1.2 2.1 -0.9
v 1.2 2.1 -1.3
v 1.2 2.1 -1.4
v 1.2 2.2 -0.8
v 1.2 2.2 -0.9
v 1.2 2.2 -1
v 1.2 2.2 -1.2
v 1.2 2.2 -1.3
v 1.2 2.2 -1.4
v 1.2 2.3 -0.9
v 1.2 2.3 -1
v 1.2 2.3 -1.2
v 1.2 2.3 -1.3
v 1.3 1.3 -1
v 1.3 1.3 -1.1
v 1.3 1.5 -1
v 1.3 1.5 -1.1
v 1.3 1.5 -1.2
v 1.3 1.6 -1
v 1.3 1.6 -1.1
v 1.3 1.7 -0.9
v 1.3 1.7 -1
v 1.3 1.7 -1.1
v 1.3 1.7 -1.2
v 1.3 1.7 -1.3
v 1.3 1.8 -0.8
v 1.3 1.8 -0.9
v 1.3 1.8 -1.1
v 1.3 1.8 -1.2
v 1.3 1.8 -1.3
v 1.3 1.8 -1.4
v 1.3 1.9 -0.8
v 1.3 1.9 -0.9
v 1.3 2.1 -0.8
v 1.3 2.1 -0.9
v 1.3 2.1 -1
v 1.3 2.1 -1.2
v 1.3 2.1 -1.3
v 1.3 2.1 -1.4
v 1.3 2.2 -0.9
v 1.3 2.2 -1
v 1.3 2.2 -1.2
v 1.3 2.2 -1.3
v 1.3 2.4 -1
v 1.3 2.4 -1.2
v 1.4 1.7 -1.1
v 1.4 1.7 -1.2
v 1.4 1.8 -0.9
v 1.4 1.8 -1.1
v 1.4 1.8 -1.2
v 1.4 1.8 -1.3
v 1.4 2.1 -0.9
v 1.4 2.1 -1
v 1.4 2.1 -1.2
v 1.4 2.1 -1.3
v 1.4 2.2 -1
v 1.4 2.2 -1.2
v 0.7 1.8 -0.8
v 0.7 1.9 -0.8
v 0.7 2.1 -0.8
v 0.8 1.7 -0.8
v 0.8 1.8 -0.8
v 0.8 1.9 -0.8
v 0.8 2 -0.8
v 0.8 2.1 -0.8
v 0.8 2.2 -0.8
v 0.9 1.9 -0.8
v 0.9 2 -0.8
v 1.1 1.9 -0.8
v 1.1 2 -0.8
v 1.2 1.7 -0.8
v 1.2 1.8 -0.8
v 1.2 1.9 -0.8
v 1.2 2 -0.8
v 1.2 2.1 -0.8
v 1.2 2.2 -0.8
v 1.3 1.8 -0.8
v 1.3 1.9 -0.8
v 1.3 2.1 -0.8
v 0.6 1.8 -0.9
v 0.6 2.1 -0.9
v 0.7 1.7 -0.9
v 0.7 1.8 -0.9
v 0.7 1.9 -0.9
v 0.7 2.1 -0.9
v 0.7 2.2 -0.9
v 0.8 1.2 -0.9
v 0.8 1.6 -0.9
v 0.8 1.7 -0.9
v 0.8 1.8 -0.9
v 0.8 2.1 -0.9
v 0.8 2.2 -0.9
v 0.8 2.3 -0.9
v 0.9 1.6 -0.9
v 0.9 1.7 -0.9
v 1.1 1.6 -0.9
v 1.1 1.7 -0.9
v 1.2 1.2 -0.9
v 1.2 1.6 -0.9
v 1.2 1.7 -0.9
v 1.2 1.8 -0.9
v 1.2 2.1 -0.9
v 1.2 2.2 -0.9
v 1.2 2.3 -0.9
v 1.3 1.7 -0.9
v 1.3 1.8 -0.9
v 1.3 1.9 -0.9
v 1.3 2.1 -0.9
v 1.3 2.2 -0.9
v 1.4 1.8 -0.9
v 1.4 2.1 -0.9
v 0.6 2.1 -1
v 0.6 2.2 -1
v 0.7 1.3 -1
v 0.7 1.5 -1
v 0.7 1.6 -1
v 0.7 1.7 -1
v 0.7 2.1 -1
v 0.7 2.2 -1
v 0.7 2.4 -1
v 0.8 1 -1
v 0.8 1.1 -1
v 0.8 1.2 -1
v 0.8 1.3 -1
v 0.8 1.5 -1
v 0.8 1.6 -1
v 0.8 1.7 -1
v 0.8 2.2 -1
v 0.8 2.3 -1
v 0.8 2.4 -1
v 0.9 1 -1
v 0.9 1.1 -1
v 0.9 1.2 -1
v 1.1 1 -1
v 1.1 1.1 -1
v 1.1 1.2 -1
v 1.2 1 -1
v 1.2 1.1 -1
v 1.2 1.2 -1
v 1.2 1.3 -1
v 1.2 1.5 -1
v 1.2 1.6 -1
v 1.2 1.7 -1
v 1.2 2.2 -1
v 1.2 2.3 -1
v 1.2 2.4 -1
v 1.3 1.3 -1
v 1.3 1.5 -1
v 1.3 1.6 -1
v 1.3 1.7 -1
v 1.3 2.1 -1
v 1.3 2.2 -1
v 1.3 2.4 -1
v 1.4 2.1 -1
v 1.4 2.2 -1
v 0.6 1.7 -1.1
v 0.6 1.8 -1.1
v 0.7 1.7 -1.1
v 0.7 1.8 -1.1
v 1.3 1.7 -1.1
v 1.3 1.8 -1.1
v 1.4 1.7 -1.1
v 1.4 1.8 -1.1
v 0.6 2.1 -1.1
v 0.6 2.2 -1.1
v 0.7 1.3 -1.1
v 0.7 1.5 -1.1
v 0.7 2.1 -1.1
v 0.7 2.2 -1.1
v 0.8 1 -1.1
v 0.8 1.1 -1.1
v 0.8 1.2 -1.1
v 0.8 1.3 -1.1
v 0.8 1.5 -1.1
v 0.9 1 -1.1
v 0.9 1.1 -1.1
v 0.9 1.2 -1.1
v 1.1 1 -1.1
v 1.1 1.1 -1.1
v 1.1 1.2 -1.1
v 1.2 1 -1.1
v 1.2 1.1 -1.1
v 1.2 1.2 -1.1
v 1.2 1.3 -1.1
v 1.2 1.5 -1.1
v 1.3 1.3 -1.1
v 1.3 1.5 -1.1
v 0.6 1.7 -1.2
v 0.6 1.8 -1.2
v 0.6 2 -1.2
v 0.6 2.1 -1.2
v 0.7 1.5 -1.2
v 0.7 1.7 -1.2
v 0.7 1.8 -1.2
v 0.7 2 -1.2
v 0.7 2.1 -1.2
v 0.7 2.2 -1.2
v 0.7 2.4 -1.2
v 0.8 1.2 -1.2
v 0.8 1.5 -1.2
v 0.8 1.6 -1.2
v 0.8 1.7 -1.2
v 0.8 2.2 -1.2
v 0.8 2.3 -1.2
v 0.8 2.4 -1.2
v 0.9 1.2 -1.2
v 0.9 1.3 -1.2
v 1 1.2 -1.2
v 1 1.3 -1.2
v 1.2 1.2 -1.2
v 1.2 1.5 -1.2
v 1.2 1.6 -1.2
v 1.2 1.7 -1.2
v 1.2 2.2 -1.2
v 1.2 2.3 -1.2
v 1.2 2.4 -1.2
v 1.3 1.5 -1.2
v 1.3 1.7 -1.2
v 1.3 1.8 -1.2
v 1.3 2.1 -1.2
v 1.3 2.2 -1.2
v 1.3 2.4 -1.2
v 1.4 1.7 -1.2
v 1.4 1.8 -1.2
v 1.4 2.1 -1.2
v 1.4 2.2 -1.2
v 0.6 1.8 -1.3
v 0.6 2 -1.3
v 0.7 1.7 -1.3
v 0.7 1.8 -1.3
v 0.7 2 -1.3
v 0.7 2.1 -1.3
v 0.7 2.2 -1.3
v 0.8 1.6 -1.3
v 0.8 1.7 -1.3
v 0.8 1.8 -1.3
v 0.8 2.1 -1.3
v 0.8 2.2 -1.3
v 0.8 2.3 -1.3
v 0.9 1.2 -1.3
v 0.9 1.3 -1.3
v 1 1.2 -1.3
v 1 1.3 -1.3
v 1.2 1.6 -1.3
v 1.2 1.7 -1.3
v 1.2 1.8 -1.3
v 1.2 2.1 -1.3
v 1.2 2.2 -1.3
v 1.2 2.3 -1.3
v 1.3 1.7 -1.3
v 1.3 1.8 -1.3
v 1.3 2.1 -1.3
v 1.3 2.2 -1.3
v 1.4 1.8 -1.3
v 1.4 2.1 -1.3
v 0.7 1.8 -1.4
v 0.7 2.1 -1.4
v 0.8 1.7 -1.4
v 0.8 1.8 -1.4
v 0.8 2.1 -1.4
v 0.8 2.2 -1.4
v 1.2 1.7 -1.4
v 1.2 1.8 -1.4
v 1.2 2.1 -1.4
v 1.2 2.2 -1.4
v 1.3 1.8 -1.4
v 1.3 2.1 -1.4
v 0.8 1 -1
v 0.9 1 -1
v 1.1 1 -1
v 1.2 1 -1
v 0.8 1 -1.1
v 0.9 1 -1.1
v 1.1 1 -1.1
v 1.2 1 -1.1
v 0.8 1.2 -0.9
v 1.2 1.2 -0.9
v 0.8 1.2 -1
v 0.9 1.2 -1
v 1.1 1.2 -1
v 1.2 1.2 -1
v 0.8 1.2 -1.1
v 0.9 1.2 -1.1
v 1.1 1.2 -1.1
v 1.2 1.2 -1.1
v 0.8 1.2 -1.2
v 0.9 1.2 -1.2
v 1 1.2 -1.2
v 1.2 1.2 -1.2
v 0.9 1.2 -1.3
v 1 1.2 -1.3
v 0.7 1.3 -1
v 0.8 1.3 -1
v 1.2 1.3 -1
v 1.3 1.3 -1
v 0.7 1.3 -1.1
v 0.8 1.3 -1.1
v 1.2 1.3 -1.1
v 1.3 1.3 -1.1
v 0.7 1.5 -1.1
v 0.8 1.5 -1.1
v 1.2 1.5 -1.1
v 1.3 1.5 -1.1
v 0.7 1.5 -1.2
v 0.8 1.5 -1.2
v 1.2 1.5 -1.2
v 1.3 1.5 -1.2
v 0.8 1.6 -1.2
v 1.2 1.6 -1.2
v 0.8 1.6 -1.3
v 1.2 1.6 -1.3
v 0.8 1.7 -0.8
v 1.2 1.7 -0.8
v 0.7 1.7 -0.9
v 0.8 1.7 -0.9
v 0.9 1.7 -0.9
v 1.1 1.7 -0.9
v 1.2 1.7 -0.9
v 1.3 1.7 -0.9
v 0.7 1.7 -1
v 0.8 1.7 -1
v 1.2 1.7 -1
v 1.3 1.7 -1
v 0.6 1.7 -1.1
v 0.7 1.7 -1.1
v 1.3 1.7 -1.1
v 1.4 1.7 -1.1
v 0.6 1.7 -1.2
v 0.7 1.7 -1.2
v 0.8 1.7 -1.2
v 1.2 1.7 -1.2
v 1.3 1.7 -1.2
v 1.4 1.7 -1.2
v 0.7 1.7 -1.3
v 0.8 1.7 -1.3
v 1.2 1.7 -1.3
v 1.3 1.7 -1.3
v 0.8 1.7 -1.4
v 1.2 1.7 -1.4
v 0.7 1.8 -0.8
v 0.8 1.8 -0.8
v 1.2 1.8 -0.8
v 1.3 1.8 -0.8
v 0.6 1.8 -0.9
v 0.7 1.8 -0.9
v 0.8 1.8 -0.9
v 1.2 1.8 -0.9
v 1.3 1.8 -0.9
v 1.4 1.8 -0.9
v 0.6 1.8 -1.1
v 0.7 1.8 -1.1
v 1.3 1.8 -1.1
v 1.4 1.8 -1.1
v 0.6 1.8 -1.2
v 0.7 1.8 -1.2
v 1.3 1.8 -1.2
v 1.4 1.8 -1.2
v 0.6 1.8 -1.3
v 0.7 1.8 -1.3
v 0.8 1.8 -1.3
v 1.2 1.8 -1.3
v 1.3 1.8 -1.3
v 1.4 1.8 -1.3
v 0.7 1.8 -1.4
v 0.8 1.8 -1.4
v 1.2 1.8 -1.4
v 1.3 1.8 -1.4
v 0.9 1.3 -1.2
v 1 1.3 -1.2
v 0.9 1.3 -1.3
v 1 1.3 -1.3
v 0.6 2 -1.2
v 0.7 2 -1.2
v 0.6 2 -1.3
v 0.7 2 -1.3
v 0.7 2.1 -0.8
v 0.8 2.1 -0.8
v 1.2 2.1 -0.8
v 1.3 2.1 -0.8
v 0.6 2.1 -0.9
v 0.7 2.1 -0.9
v 0.8 2.1 -0.9
v 1.2 2.1 -0.9
v 1.3 2.1 -0.9
v 1.4 2.1 -0.9
v 0.6 2.1 -1
v 0.7 2.1 -1
v 1.3 2.1 -1
v 1.4 2.1 -1
v 0.6 2.1 -1.1
v 0.7 2.1 -1.1
v 0.6 2.1 -1.2
v 0.7 2.1 -1.2
v 1.3 2.1 -1.2
v 1.4 2.1 -1.2
v 0.7 2.1 -1.3
v 0.8 2.1 -1.3
v 1.2 2.1 -1.3
v 1.3 2.1 -1.3
v 1.4 2.1 -1.3
v 0.7 2.1 -1.4
v 0.8 2.1 -1.4
v 1.2 2.1 -1.4
v 1.3 2.1 -1.4
v 0.8 2.2 -0.8
v 1.2 2.2 -0.8
v 0.7 2.2 -0.9
v 0.8 2.2 -0.9
v 1.2 2.2 -0.9
v 1.3 2.2 -0.9
v 0.6 2.2 -1
v 0.7 2.2 -1
v 0.8 2.2 -1
v 1.2 2.2 -1
v 1.3 2.2 -1
v 1.4 2.2 -1
v 0.6 2.2 -1.1
v 0.7 2.2 -1.1
v 0.7 2.2 -1.2
v 0.8 2.2 -1.2
v 1.2 2.2 -1.2
v 1.3 2.2 -1.2
v 1.4 2.2 -1.2
v 0.7 2.2 -1.3
v 0.8 2.2 -1.3
v 1.2 2.2 -1.3
v 1.3 2.2 -1.3
v 0.8 2.2 -1.4
v 1.2 2.2 -1.4
v 0.8 2.3 -0.9
v 1.2 2.3 -0.9
v 0.8 2.3 -1
v 1.2 2.3 -1
v 0.8 2.3 -1.2
v 1.2 2.3 -1.2
v 0.8 2.3 -1.3
v 1.2 2.3 -1.3
v 0.7 2.4 -1
v 0.8 2.4 -1
v 1.2 2.4 -1
v 1.3 2.4 -1
v 0.7 2.4 -1.2
v 0.8 2.4 -1.2
v 1.2 2.4 -1.2
v 1.3 2.4 -1.2

# faces
f 4/2/1 2/2/1 1/2/1
f 5/2/1 2/2/1 4/2/1
f 7/2/1 4/2/1 3/2/1
f 7/2/1 6/2/1 5/2/1
f 7/2/1 5/2/1 4/2/1
f 8/2/1 6/2/1 7/2/1
f 9/2/1 7/2/1 3/2/1
f 10/2/1 7/2/1 9/2/1
f 11/2/1 7/2/1 10/2/1
f 12/2/1 7/2/1 11/2/1
f 13/2/1 11/2/1 10/2/1
f 14/2/1 11/2/1 13/2/1
f 17/2/1 16/2/1 15/2/1
f 18/2/1 16/2/1 17/2/1
f 20/3/1 18/3/1 17/3/1
f 21/2/1 19/2/1 18/2/1
f 21/3/1 18/3/1 20/3/1
f 23/4/1 21/4/1 20/4/1
f 24/2/1 19/2/1 21/2/1
f 24/4/1 21/4/1 23/4/1
f 25/2/1 19/2/1 24/2/1
f 28/2/1 23/2/1 22/2/1
f 28/2/1 24/2/1 23/2/1
f 29/2/1 24/2/1 28/2/1
f 30/2/1 26/2/1 25/2/1
f 31/2/1 26/2/1 30/2/1
f 33/1/1 28/1/1 27/1/1
f 34/1/1 28/1/1 33/1/1
f 36/2/1 32/2/1 31/2/1
f 37/2/1 34/2/1 33/2/1
f 38/2/1 34/2/1 37/2/1
f 41/2/1 36/2/1 35/2/1
f 42/2/1 32/2/1 36/2/1
f 42/2/1 36/2/1 41/2/1
f 43/2/1 32/2/1 42/2/1
f 44/2/1 39/2/1 38/2/1
f 45/2/1 39/2/1 44/2/1
f 46/2/1 41/2/1 40/2/1
f 46/2/1 42/2/1 41/2/1
f 47/2/1 42/2/1 46/2/1
f 48/2/1 42/2/1 47/2/1
f 49/2/1 46/2/1 45/2/1
f 49/2/1 47/2/1 46/2/1
f 50/2/1 47/2/1 49/2/1
f 53/2/1 52/2/1 51/2/1
f 54/2/1 52/2/1 53/2/1
f 56/3/1 54/3/1 53/3/1
f 57/3/1 54/3/1 56/3/1
f 59/2/1 57/2/1 56/2/1
f 59/2/1 58/2/1 57/2/1
f 59/2/1 56/2/1 55/2/1
f 60/2/1 58/2/1 59/2/1
f 61/2/1 59/2/1 55/2/1
f 62/2/1 58/2/1 60/2/1
f 63/2/1 58/2/1 62/2/1
f 64/2/1 61/2/1 55/2/1
f 65/2/1 61/2/1 64/2/1
f 69/3/1 65/3/1 64/3/1
f 70/3/1 65/3/1 69/3/1
f 71/2/1 67/2/1 66/2/1
f 72/2/1 67/2/1 71/2/1
f 74/2/1 69/2/1 68/2/1
f 75/2/1 69/2/1 74/2/1
f 76/2/1 73/2/1 72/2/1
f 77/2/1 73/2/1 76/2/1
f 82/2/1 79/2/1 78/2/1
f 83/2/1 79/2/1 82/2/1
f 86/2/1 81/2/1 80/2/1
f 87/2/1 81/2/1 86/2/1
f 88/2/1 84/2/1 83/2/1
f 89/2/1 84/2/1 88/2/1
f 90/2/1 86/2/1 85/2/1
f 91/2/1 86/2/1 90/2/1
f 94/2/1 93/2/1 92/2/1
f 95/2/1 93/2/1 94/2/1
f 98/2/1 97/2/1 96/2/1
f 99/2/1 97/2/1 98/2/1
f 100/3/1 99/3/1 98/3/1
f 101/3/1 99/3/1 100/3/1
f 104/2/1 103/2/1 102/2/1
f 105/2/1 103/2/1 104/2/1
f 106/2/2 107/2/2 108/2/2
f 108/2/2 107/2/2 109/2/2
f 110/2/2 111/2/2 112/2/2
f 112/2/2 111/2/2 113/2/2
f 112/3/2 113/3/2 114/3/2
f 114/3/2 113/3/2 115/3/2
f 116/2/2 117/2/2 118/2/2
f 118/2/2 117/2/2 119/2/2
f 120/2/2 121/2/2 122/2/2
f 122/2/2 121/2/2 123/2/2
f 122/3/2 123/3/2 125/3/2
f 125/3/2 123/3/2 126/3/2
f 125/2/2 126/2/2 128/2/2
f 126/2/2 127/2/2 128/2/2
f 124/2/2 125/2/2 128/2/2
f 128/2/2 127/2/2 129/2/2
f 124/2/2 128/2/2 130/2/2
f 129/2/2 127/2/2 131/2/2
f 131/2/2 127/2/2 132/2/2
f 124/2/2 130/2/2 133/2/2
f 133/2/2 130/2/2 134/2/2
f 133/3/2 134/3/2 138/3/2
f 138/3/2 134/3/2 139/3/2
f 135/2/2 136/2/2 140/2/2
f 140/2/2 136/2/2 141/2/2
f 137/2/2 138/2/2 143/2/2
f 143/2/2 138/2/2 144/2/2
f 141/2/2 142/2/2 145/2/2
f 145/2/2 142/2/2 146/2/2
f 147/2/2 148/2/2 151/2/2
f 151/2/2 148/2/2 152/2/2
f 149/2/2 150/2/2 155/2/2
f 155/2/2 150/2/2 156/2/2
f 152/2/2 153/2/2 157/2/2
f 157/2/2 153/2/2 158/2/2
f 154/2/2 155/2/2 159/2/2
f 159/2/2 155/2/2 160/2/2
f 161/2/2 162/2/2 163/2/2
f 163/2/2 162/2/2 164/2/2
f 163/3/2 164/3/2 166/3/2
f 164/2/2 165/2/2 167/2/2
f 166/3/2 164/3/2 167/3/2
f 166/4/2 167/4/2 169/4/2
f 167/2/2 165/2/2 170/2/2
f 169/4/2 167/4/2 170/4/2
f 170/2/2 165/2/2 171/2/2
f 168/2/2 169/2/2 174/2/2
f 169/2/2 170/2/2 174/2/2
f 174/2/2 170/2/2 175/2/2
f 171/2/2 172/2/2 176/2/2
f 176/2/2 172/2/2 177/2/2
f 173/1/2 174/1/2 179/1/2
f 179/1/2 174/1/2 180/1/2
f 179/2/2 180/2/2 181/2/2
f 181/2/2 180/2/2 182/2/2
f 177/2/2 178/2/2 185/2/2
f 185/2/2 178/2/2 186/2/2
f 182/2/2 183/2/2 187/2/2
f 187/2/2 183/2/2 188/2/2
f 184/2/2 185/2/2 189/2/2
f 189/2/2 185/2/2 190/2/2
f 188/2/2 189/2/2 191/2/2
f 191/2/2 189/2/2 192/2/2
f 193/2/2 194/2/2 196/2/2
f 196/2/2 194/2/2 197/2/2
f 195/2/2 196/2/2 199/2/2
f 197/2/2 198/2/2 199/2/2
f 196/2/2 197/2/2 199/2/2
f 199/2/2 198/2/2 200/2/2
f 200/2/2 198/2/2 201/2/2
f 201/2/2 198/2/2 202/2/2
f 200/2/2 201/2/2 203/2/2
f 203/2/2 201/2/2 204/2/2
f 209/1/3 206/1/3 205/1/3
f 210/2/3 207/2/3 206/2/3
f 210/1/3 206/1/3 209/1/3
f 211/2/3 207/2/3 210/2/3
f 212/2/3 207/2/3 211/2/3
f 214/2/3 209/2/3 208/2/3
f 214/2/3 210/2/3 209/2/3
f 214/5/3 211/5/3 210/5/3
f 215/2/3 213/2/3 212/2/3
f 215/5/3 211/5/3 214/5/3
f 215/2/3 212/2/3 211/2/3
f 216/2/3 214/2/3 208/2/3
f 216/2/3 215/2/3 214/2/3
f 217/2/3 213/2/3 215/2/3
f 217/2/3 215/2/3 216/2/3
f 218/2/3 216/2/3 208/2/3
f 219/2/3 216/2/3 218/2/3
f 220/5/3 217/5/3 216/5/3
f 220/2/3 216/2/3 219/2/3
f 221/2/3 213/2/3 217/2/3
f 221/5/3 217/5/3 220/5/3
f 222/2/3 213/2/3 221/2/3
f 223/2/3 213/2/3 222/2/3
f 224/1/3 220/1/3 219/1/3
f 225/2/3 222/2/3 221/2/3
f 225/1/3 220/1/3 224/1/3
f 225/2/3 221/2/3 220/2/3
f 226/2/3 222/2/3 225/2/3
f 230/2/3 228/2/3 227/2/3
f 231/2/3 228/2/3 230/2/3
f 232/2/3 228/2/3 231/2/3
f 236/2/3 230/2/3 229/2/3
f 237/2/3 230/2/3 236/2/3
f 238/2/3 233/2/3 232/2/3
f 239/2/3 233/2/3 238/2/3
f 241/2/3 235/2/3 234/2/3
f 241/3/3 236/3/3 235/3/3
f 242/3/3 236/3/3 241/3/3
f 243/2/3 241/2/3 234/2/3
f 243/2/3 242/2/3 241/2/3
f 244/2/3 242/2/3 243/2/3
f 245/2/3 243/2/3 234/2/3
f 246/3/3 244/3/3 243/3/3
f 246/2/3 243/2/3 245/2/3
f 247/3/3 244/3/3 246/3/3
f 250/2/3 240/2/3 239/2/3
f 251/2/3 240/2/3 250/2/3
f 252/2/3 248/2/3 247/2/3
f 253/2/3 248/2/3 252/2/3
f 255/2/3 250/2/3 249/2/3
f 256/2/3 250/2/3 255/2/3
f 257/2/3 254/2/3 253/2/3
f 257/2/3 255/2/3 254/2/3
f 258/2/3 255/2/3 257/2/3
f 265/2/3 260/2/3 259/2/3
f 266/2/3 260/2/3 265/2/3
f 271/2/3 262/2/3 261/2/3
f 272/3/3 263/3/3 262/3/3
f 272/2/3 262/2/3 271/2/3
f 273/4/3 264/4/3 263/4/3
f 273/3/3 263/3/3 272/3/3
f 274/4/3 264/4/3 273/4/3
f 275/2/3 267/2/3 266/2/3
f 276/2/3 267/2/3 275/2/3
f 277/2/3 267/2/3 276/2/3
f 278/2/3 269/2/3 268/2/3
f 279/3/3 270/3/3 269/3/3
f 279/2/3 269/2/3 278/2/3
f 280/3/3 270/3/3 279/3/3
f 284/2/3 282/2/3 281/2/3
f 285/3/3 283/3/3 282/3/3
f 285/2/3 282/2/3 284/2/3
f 286/3/3 283/3/3 285/3/3
f 294/2/3 288/2/3 287/2/3
f 295/3/3 289/3/3 288/3/3
f 295/2/3 288/2/3 294/2/3
f 296/4/3 290/4/3 289/4/3
f 296/3/3 289/3/3 295/3/3
f 297/4/3 290/4/3 296/4/3
f 299/2/3 293/2/3 292/2/3
f 299/2/3 292/2/3 291/2/3
f 300/2/3 293/2/3 299/2/3
f 301/2/3 299/2/3 298/2/3
f 302/2/3 299/2/3 301/2/3
f 305/2/3 304/2/3 303/2/3
f 306/2/3 304/2/3 305/2/3
f 309/2/3 308/2/3 307/2/3
f 310/2/3 308/2/3 309/2/3
f 311/2/4 312/2/4 315/2/4
f 315/2/4 312/2/4 316/2/4
f 313/2/4 314/2/4 320/2/4
f 320/2/4 314/2/4 321/2/4
f 317/2/4 318/2/4 322/2/4
f 318/3/4 319/3/4 323/3/4
f 322/2/4 318/2/4 323/2/4
f 323/3/4 319/3/4 324/3/4
f 325/2/4 326/2/4 328/2/4
f 326/3/4 327/3/4 329/3/4
f 328/2/4 326/2/4 329/2/4
f 329/3/4 327/3/4 330/3/4
f 331/2/4 332/2/4 333/2/4
f 333/2/4 332/2/4 334/2/4
f 335/2/4 336/2/4 340/2/4
f 340/2/4 336/2/4 341/2/4
f 337/2/4 338/2/4 342/2/4
f 342/2/4 338/2/4 343/2/4
f 339/2/4 340/2/4 347/2/4
f 347/2/4 340/2/4 348/2/4
f 348/2/4 340/2/4 349/2/4
f 344/2/4 345/2/4 350/2/4
f 350/2/4 345/2/4 351/2/4
f 351/2/4 345/2/4 352/2/4
f 346/2/4 347/2/4 353/2/4
f 347/2/4 348/2/4 353/2/4
f 353/2/4 348/2/4 354/2/4
f 354/2/4 348/2/4 356/2/4
f 355/2/4 356/2/4 357/2/4
f 356/2/4 348/2/4 358/2/4
f 357/2/4 356/2/4 358/2/4
f 358/2/4 348/2/4 359/2/4
f 358/2/4 359/2/4 364/2/4
f 359/2/4 360/2/4 364/2/4
f 364/2/4 360/2/4 365/2/4
f 362/2/4 363/2/4 368/2/4
f 361/2/4 362/2/4 368/2/4
f 368/2/4 363/2/4 369/2/4
f 365/2/4 366/2/4 370/2/4
f 370/2/4 366/2/4 371/2/4
f 367/2/4 368/2/4 372/2/4
f 372/2/4 368/2/4 373/2/4
f 374/2/4 375/2/4 377/2/4
f 377/2/4 375/2/4 378/2/4
f 376/2/4 377/2/4 382/2/4
f 382/2/4 377/2/4 383/2/4
f 379/2/4 380/2/4 384/2/4
f 384/2/4 380/2/4 385/2/4
f 387/2/4 388/2/4 389/2/4
f 389/2/4 388/2/4 390/2/4
f 381/2/4 382/2/4 391/2/4
f 391/2/4 382/2/4 392/2/4
f 385/2/4 386/2/4 395/2/4
f 395/2/4 386/2/4 396/2/4
f 392/2/4 393/2/4 397/2/4
f 397/2/4 393/2/4 398/2/4
f 394/2/4 395/2/4 399/2/4
f 399/2/4 395/2/4 400/2/4
f 398/2/4 399/2/4 401/2/4
f 401/2/4 399/2/4 402/2/4
f 403/2/4 404/2/4 406/2/4
f 406/2/4 404/2/4 407/2/4
f 405/2/4 406/2/4 409/2/4
f 407/2/4 408/2/4 409/2/4
f 406/2/4 407/2/4 409/2/4
f 409/2/4 408/2/4 410/2/4
f 410/2/4 408/2/4 411/2/4
f 411/2/4 408/2/4 412/2/4
f 410/2/4 411/2/4 413/2/4
f 413/2/4 411/2/4 414/2/4
f 419/2/5 416/2/5 415/2/5
f 420/2/5 416/2/5 419/2/5
f 421/2/5 418/2/5 417/2/5
f 422/2/5 418/2/5 421/2/5
f 425/2/5 424/2/5 423/2/5
f 426/2/5 424/2/5 425/2/5
f 427/2/5 424/2/5 426/2/5
f 428/2/5 424/2/5 427/2/5
f 430/2/5 427/2/5 426/2/5
f 431/2/5 427/2/5 430/2/5
f 433/2/5 430/2/5 429/2/5
f 433/2/5 432/2/5 431/2/5
f 433/2/5 431/2/5 430/2/5
f 434/2/5 432/2/5 433/2/5
f 435/2/5 432/2/5 434/2/5
f 436/2/5 432/2/5 435/2/5
f 437/2/5 435/2/5 434/2/5
f 438/2/5 435/2/5 437/2/5
f 443/2/5 440/2/5 439/2/5
f 444/2/5 440/2/5 443/2/5
f 445/2/5 442/2/5 441/2/5
f 446/2/5 442/2/5 445/2/5
f 451/2/5 448/2/5 447/2/5
f 452/2/5 448/2/5 451/2/5
f 453/2/5 450/2/5 449/2/5
f 454/2/5 450/2/5 453/2/5
f 457/2/5 456/2/5 455/2/5
f 458/2/5 456/2/5 457/2/5
f 462/2/5 460/2/5 459/2/5
f 463/2/5 460/2/5 462/2/5
f 464/2/5 460/2/5 463/2/5
f 465/2/5 460/2/5 464/2/5
f 467/2/5 462/2/5 461/2/5
f 468/2/5 462/2/5 467/2/5
f 469/2/5 466/2/5 465/2/5
f 470/2/5 466/2/5 469/2/5
f 475/2/5 472/2/5 471/2/5
f 476/2/5 472/2/5 475/2/5
f 479/2/5 474/2/5 473/2/5
f 480/2/5 474/2/5 479/2/5
f 481/2/5 477/2/5 476/2/5
f 482/2/5 477/2/5 481/2/5
f 483/2/5 479/2/5 478/2/5
f 484/2/5 479/2/5 483/2/5
f 485/2/5 483/2/5 482/2/5
f 486/2/5 483/2/5 485/2/5
f 492/1/5 488/1/5 487/1/5
f 493/1/5 488/1/5 492/1/5
f 494/1/5 490/1/5 489/1/5
f 495/1/5 490/1/5 494/1/5
f 497/2/5 492/2/5 491/2/5
f 498/2/5 492/2/5 497/2/5
f 499/2/5 496/2/5 495/2/5
f 500/2/5 496/2/5 499/2/5
f 505/2/5 502/2/5 501/2/5
f 506/2/5 502/2/5 505/2/5
f 509/2/5 504/2/5 503/2/5
f 510/2/5 504/2/5 509/2/5
f 511/2/5 507/2/5 506/2/5
f 512/2/5 507/2/5 511/2/5
f 513/2/5 509/2/5 508/2/5
f 514/2/5 509/2/5 513/2/5
f 515/2/6 516/2/6 517/2/6
f 517/2/6 516/2/6 518/2/6
f 519/2/6 520/2/6 521/2/6
f 521/2/6 520/2/6 522/2/6
f 523/2/6 524/2/6 528/2/6
f 528/2/6 524/2/6 529/2/6
f 525/2/6 526/2/6 530/2/6
f 530/2/6 526/2/6 531/2/6
f 527/2/6 528/2/6 533/2/6
f 533/2/6 528/2/6 534/2/6
f 531/2/6 532/2/6 535/2/6
f 535/2/6 532/2/6 536/2/6
f 537/2/6 538/2/6 539/2/6
f 539/2/6 538/2/6 540/2/6
f 541/2/6 542/2/6 546/2/6
f 546/2/6 542/2/6 547/2/6
f 543/2/6 544/2/6 548/2/6
f 548/2/6 544/2/6 549/2/6
f 545/2/6 546/2/6 550/2/6
f 550/2/6 546/2/6 551/2/6
f 552/2/6 553/2/6 555/2/6
f 555/2/6 553/2/6 556/2/6
f 554/2/6 555/2/6 559/2/6
f 559/2/6 555/2/6 560/2/6
f 556/2/6 557/2/6 561/2/6
f 561/2/6 557/2/6 562/2/6
f 558/2/6 559/2/6 564/2/6
f 564/2/6 559/2/6 565/2/6
f 562/2/6 563/2/6 569/2/6
f 569/2/6 563/2/6 570/2/6
f 566/2/6 567/2/6 571/2/6
f 571/2/6 567/2/6 572/2/6
f 568/2/6 569/2/6 573/2/6
f 573/2/6 569/2/6 574/2/6
f 572/2/6 573/2/6 575/2/6
f 575/2/6 573/2/6 576/2/6
f 577/2/6 578/2/6 579/2/6
f 579/2/6 578/2/6 580/2/6
f 579/2/6 580/2/6 581/2/6
f 581/2/6 580/2/6 582/2/6
f 581/2/6 582/2/6 583/2/6
f 583/2/6 582/2/6 584/2/6
f 585/2/6 586/2/6 589/2/6
f 589/2/6 586/2/6 590/2/6
f 587/2/6 588/2/6 591/2/6
f 591/2/6 588/2/6 592/2/6
